<svg width="1200" height="630" viewBox="0 0 1200 630" xmlns="http://www.w3.org/2000/svg">
  <defs>
    <linearGradient id="bg" x1="0%" y1="0%" x2="100%" y2="100%">
      <stop offset="0%" stop-color="#050816"/>
      <stop offset="50%" stop-color="#0f1024"/>
      <stop offset="100%" stop-color="#1a162b"/>
    </linearGradient>
    <linearGradient id="markGradient" x1="0%" y1="0%" x2="100%" y2="100%">
      <stop offset="0%" stop-color="#a35bff"/>
      <stop offset="70%" stop-color="#ff60d6"/>
    </linearGradient>
  </defs>

  <rect width="1200" height="630" fill="url(#bg)"/>
  <circle cx="1050" cy="80" r="220" fill="#a35bff" opacity="0.18"/>
  <circle cx="120" cy="520" r="260" fill="#ff60d6" opacity="0.12"/>

  <g transform="translate(200,150)">
    <rect width="200" height="200" rx="48" fill="url(#markGradient)"/>
    <path d="M60 40L100 100L60 160" stroke="#ffffff" stroke-width="18" stroke-linecap="round" stroke-linejoin="round" opacity="0.95"/>
    <path d="M110 45C150 45 165 70 165 100C165 132 146 156 110 156M110 156L150 156" stroke="#efe2ff" stroke-width="18" stroke-linecap="round" stroke-linejoin="round"/>
  </g>

  <g transform="translate(450,170)">
    <text x="0" y="0" font-family="Syne, 'Space Grotesk', sans-serif" font-size="24" letter-spacing="0.6em" fill="#efe2ff">YB STUDIO</text>
    <text x="0" y="96" font-family="Fraunces, 'Times New Roman', serif" font-size="80" font-weight="600" fill="#ffffff">Yasmine Bateman</text>
    <text x="0" y="150" font-family="'Space Grotesk', sans-serif" font-size="26" letter-spacing="0.4em" fill="#efe2ff" opacity="0.8">
      FLAWLESS EVENTS • BETTER MEMORIES
    </text>
    <text x="0" y="210" font-family="'Space Grotesk', sans-serif" font-size="20" fill="#c1b5ff" opacity="0.8">
      Atlanta-based luxury event partner &amp; content creator with 300K+ engaged followers.
    </text>
  </g>

  <g transform="translate(450,360)" font-family="'Space Grotesk', sans-serif" font-size="18" fill="#efe2ff">
    <text x="0" y="0" opacity="0.7">@YASMINEBATEMAN</text>
    <text x="0" y="40" opacity="0.7">ATLANTA · GA</text>
    <rect x="0" y="70" width="300" height="4" rx="2" fill="#a35bff"/>
  </g>

  <text x="200" y="520" font-family="'Space Grotesk', sans-serif" font-size="20" fill="#efe2ff" opacity="0.7">yasminebateman.com</text>
</svg>

